<?xml version="1.0" encoding="UTF-8" standalone="no"?>
<svg
   xmlns:ns="&amp;#38;#38;ns_ai;"
   xmlns:dc="http://purl.org/dc/elements/1.1/"
   xmlns:cc="http://creativecommons.org/ns#"
   xmlns:rdf="http://www.w3.org/1999/02/22-rdf-syntax-ns#"
   xmlns:svg="http://www.w3.org/2000/svg"
   xmlns="http://www.w3.org/2000/svg"
   id="svg6"
   viewBox="0 0 124.189 132.243"
   enable-background="new 0 0 124.189 132.243"
   y="0px"
   x="0px"
   version="1.1"
   width="124.19px"
   height="132.24px"
   xml:space="preserve"><metadata
     id="metadata12"><rdf:RDF><cc:Work
         rdf:about=""><dc:format>image/svg+xml</dc:format><dc:type
           rdf:resource="http://purl.org/dc/dcmitype/StillImage" /><dc:title></dc:title></cc:Work></rdf:RDF></metadata><defs
     id="defs10" /><g
     id="g4"
     ns:extraneous="self"><path
       style="fill:#4343d4;fill-opacity:1"
       id="path2"
       d="m62.096 8.5859c-5.208 0-9.424 4.2191-9.424 9.4261 0.001 5.203 4.217 9.424 9.424 9.424 5.202 0 9.422-4.221 9.422-9.424 0-5.208-4.22-9.4261-9.422-9.4261zm-10.41 21.268c-6.672 0-12.131 5.407-12.131 12.07v29.23c0 2.275 1.791 4.123 4.07 4.123 2.28 0 4.127-1.846 4.127-4.123v-26.355h2.102s0.048 68.811 0.048 73.331c0 3.05 2.478 5.53 5.532 5.53 3.052 0 5.525-2.48 5.525-5.53v-42.581h2.27v42.581c0 3.05 2.473 5.53 5.531 5.53 3.054 0 5.549-2.48 5.549-5.53v-73.331h2.127v26.355c0 2.275 1.85 4.123 4.126 4.123 2.28 0 4.073-1.846 4.073-4.123v-29.23c0-6.663-5.463-12.07-12.129-12.07h-20.82z"
       stroke-width="1.25" /></g></svg>
